<?xml version="1.0" standalone="no"?>
<!DOCTYPE svg PUBLIC "-//W3C//DTD SVG 20010904//EN"
 "http://www.w3.org/TR/2001/REC-SVG-20010904/DTD/svg10.dtd">
<svg version="1.0" xmlns="http://www.w3.org/2000/svg"
 width="300.000000pt" height="300.000000pt" viewBox="0 0 300.000000 300.000000"
 preserveAspectRatio="xMidYMid meet">
<metadata>
Created by potrace 1.10, written by Peter Selinger 2001-2011
</metadata>
<g transform="translate(0.000000,300.000000) scale(0.100000,-0.100000)"
fill="#000000" stroke="none">
<path d="M1167 2767 c-25 -25 -37 -61 -37 -111 0 -24 -11 -68 -24 -97 -13 -30
-27 -72 -30 -94 l-5 -40 14 35 c7 19 14 45 14 58 1 12 6 22 11 22 5 0 9 3 8 8
-1 4 2 18 6 31 6 16 11 20 16 11 5 -8 9 -7 13 5 5 10 3 14 -4 9 -17 -10 -7
120 10 140 21 25 24 12 7 -23 -9 -16 -16 -46 -16 -66 l0 -36 33 25 c18 14 48
32 67 41 34 16 34 16 5 10 -16 -4 -45 -18 -62 -31 l-33 -25 0 23 c1 36 37 108
55 108 35 0 103 -49 84 -60 -6 -5 -3 -9 10 -13 30 -8 26 4 -18 52 -32 35 -44
41 -72 39 -18 -1 -42 -11 -52 -21z"/>
<path d="M1355 2738 c-15 -23 -15 -23 30 -28 46 -5 52 -14 28 -38 -16 -16 -17
-29 -3 -37 6 -3 10 1 10 9 0 27 42 24 85 -7 25 -17 27 -18 15 -2 -8 10 -30 24
-47 32 -33 13 -45 33 -20 33 18 -1 99 -39 122 -58 l20 -17 -20 24 c-23 27 -89
60 -121 61 -12 0 -27 7 -34 16 -27 32 -48 36 -65 12z m50 -8 c4 -6 -5 -10 -20
-10 -15 0 -24 4 -20 10 3 6 12 10 20 10 8 0 17 -4 20 -10z"/>
<path d="M1354 2689 c-7 -11 13 -29 31 -28 6 0 5 3 -2 5 -7 3 -9 12 -6 20 6
16 -13 19 -23 3z"/>
<path d="M1283 2666 c8 -20 -3 -27 -24 -15 -15 8 -19 6 -19 -7 0 -11 5 -14 16
-10 9 3 14 3 12 -1 -26 -52 -59 -128 -60 -141 -1 -10 0 -47 0 -84 2 -55 5 -68
18 -68 9 0 18 -9 21 -20 3 -11 10 -20 15 -20 6 0 7 7 2 18 -9 20 -10 49 -5
147 l4 70 7 -85 c4 -57 3 -87 -4 -92 -8 -5 -7 -8 1 -8 6 0 14 -13 18 -30 9
-43 20 -37 21 11 1 23 -2 36 -6 29 -9 -14 -19 45 -21 115 0 28 -4 59 -8 69
-13 33 -31 -36 -32 -123 -1 -53 -3 -69 -9 -51 -23 73 -1 188 50 258 35 48 36
52 14 52 -10 0 -14 -6 -11 -14z"/>
<path d="M1329 2665 c-1 -3 -2 -11 -3 -17 0 -7 -8 -13 -16 -13 -15 0 -28 -34
-28 -75 0 -14 5 -2 12 25 7 31 14 44 18 35 5 -10 7 -11 7 -2 1 7 5 11 10 8 5
-3 14 1 21 9 10 12 9 15 -4 15 -10 0 -14 5 -11 10 3 6 4 10 1 10 -3 0 -7 -2
-7 -5z"/>
<path d="M1610 2660 c0 -5 12 -8 27 -7 26 2 27 0 24 -43 -3 -54 -17 -76 -37
-59 -19 16 -18 49 3 71 15 17 15 18 -1 18 -10 0 -19 -11 -22 -30 -4 -16 -10
-27 -15 -24 -16 10 -9 -17 15 -59 14 -24 29 -74 35 -116 7 -40 16 -82 21 -92
6 -10 9 -22 9 -26 -4 -15 13 -43 26 -43 7 0 11 -8 9 -17 -5 -23 3 -34 46 -58
l35 -19 -16 24 c-46 70 -108 189 -113 215 -5 28 -5 28 6 8 6 -13 15 -23 20
-23 5 0 6 -4 3 -10 -3 -5 -2 -10 4 -10 6 0 13 11 17 25 6 24 8 25 24 10 9 -8
28 -37 41 -65 13 -27 26 -49 29 -50 3 0 11 9 17 19 10 17 5 28 -38 85 -27 36
-61 73 -75 82 -37 25 -20 29 19 5 19 -11 37 -18 40 -14 15 15 5 44 -18 55 -35
16 -43 3 -14 -22 l24 -21 -25 15 c-14 8 -42 18 -63 21 -38 7 -61 25 -33 25 9
0 16 3 16 8 0 4 7 16 16 27 13 17 16 18 24 5 8 -13 10 -12 10 3 0 9 -6 17 -14
17 -8 0 -13 10 -13 24 0 17 4 23 13 19 8 -3 11 -9 8 -14 -3 -5 0 -8 8 -7 7 2
12 -3 10 -10 -1 -8 2 -11 8 -7 17 11 11 44 -11 56 -15 8 -19 8 -15 0 4 -6 3
-11 -3 -11 -5 0 -11 5 -13 12 -5 13 -68 21 -68 8z m110 -30 c0 -5 -2 -10 -4
-10 -3 0 -8 5 -11 10 -3 6 -1 10 4 10 6 0 11 -4 11 -10z m-21 -185 c5 3 11 -2
15 -10 3 -8 0 -15 -7 -15 -12 0 -47 50 -47 67 1 4 8 -5 16 -20 8 -15 19 -25
23 -22z"/>
<path d="M1378 2634 c6 -11 18 -26 26 -33 16 -14 65 -154 68 -197 1 -13 8 -24
14 -24 9 0 5 26 -13 83 -32 105 -48 139 -80 168 -23 22 -25 22 -15 3z"/>
<path d="M1180 2593 c-18 -21 -34 -45 -36 -53 -1 -8 -6 -35 -13 -60 -13 -56
-15 -210 -1 -210 5 0 7 14 4 33 -5 31 -4 31 10 -6 27 -73 35 -61 11 17 -32
104 -17 204 42 284 32 43 24 41 -17 -5z"/>
<path d="M1635 2611 c-3 -5 -1 -12 5 -16 5 -3 10 1 10 9 0 18 -6 21 -15 7z"/>
<path d="M1322 2547 c-12 -52 -12 -61 3 -83 9 -14 18 -24 19 -22 2 1 0 39 -3
83 l-6 80 -13 -58z"/>
<path d="M1364 2523 c1 -64 4 -79 14 -71 9 8 12 -12 13 -93 l2 -104 8 70 c7
53 5 88 -8 145 -29 136 -30 139 -29 53z"/>
<path d="M1396 2553 c9 -58 13 -68 25 -56 8 8 8 21 -1 47 -16 49 -30 54 -24 9z"/>
<path d="M1461 2563 c13 -35 39 -64 50 -57 5 3 9 -2 9 -10 0 -8 4 -18 10 -21
7 -4 7 3 0 22 -9 26 -9 27 5 9 8 -11 15 -25 15 -32 0 -7 5 -16 12 -20 8 -5 9
-2 5 10 -4 11 -3 15 4 11 5 -4 8 -12 6 -18 -2 -7 3 -21 12 -32 15 -18 15 -19
-2 -6 -25 20 -27 11 -5 -24 11 -16 17 -21 14 -10 -4 11 -4 16 1 12 7 -8 14
-67 7 -67 -6 0 -56 89 -58 103 -1 8 -20 29 -41 47 l-40 34 30 -32 c27 -30 44
-92 25 -92 -5 0 -6 -9 -3 -19 3 -12 11 -17 19 -14 9 3 14 -2 14 -15 0 -12 4
-23 9 -26 4 -3 6 7 3 22 l-5 27 31 -29 c27 -25 30 -32 20 -50 -6 -12 -12 -23
-12 -26 0 -3 -6 -4 -13 -2 -8 2 -13 -7 -13 -22 0 -13 -3 -33 -6 -43 -5 -15 -4
-15 5 -3 6 8 11 26 11 40 0 18 3 21 12 12 14 -14 -22 -101 -62 -147 -22 -26
-25 -36 -20 -80 3 -32 8 -45 13 -37 5 7 6 25 3 40 -5 21 -4 24 4 12 8 -11 9
-8 4 14 -5 21 -4 27 5 22 6 -4 11 -2 11 4 0 6 11 36 25 66 14 30 25 60 25 66
0 7 4 7 14 -1 10 -9 14 -42 15 -131 2 -117 6 -150 20 -150 4 0 4 26 0 58 -10
77 -10 204 -1 218 4 7 16 14 27 17 18 4 18 5 -2 6 -13 0 -23 6 -23 11 0 6 -4
10 -10 10 -5 0 -10 -7 -10 -15 0 -8 -4 -15 -9 -15 -5 0 -8 12 -6 28 2 15 4 35
4 45 1 9 6 17 12 17 7 0 9 -10 7 -25 -3 -14 -1 -25 3 -25 5 0 9 16 9 36 0 21
-4 33 -10 29 -5 -3 -10 -3 -10 2 -1 30 -32 149 -51 192 -22 53 -38 66 -19 16
17 -44 5 -40 -24 9 -33 57 -48 67 -35 24 14 -51 10 -57 -11 -16 -25 46 -44 60
-29 21z m97 -194 c-3 -8 -7 -3 -11 10 -4 17 -3 21 5 13 5 -5 8 -16 6 -23z"/>
<path d="M1196 2550 c-9 -17 -15 -30 -11 -30 3 0 -1 -10 -9 -22 -18 -29 -31
-128 -16 -128 5 0 10 15 10 34 0 19 4 45 9 58 5 13 9 26 10 30 1 4 9 24 17 44
19 45 14 53 -10 14z"/>
<path d="M1685 2548 l-30 -29 32 16 c35 17 48 31 36 37 -5 3 -21 -9 -38 -24z"/>
<path d="M1293 2480 c0 -30 2 -43 4 -27 2 15 2 39 0 55 -2 15 -4 2 -4 -28z"/>
<path d="M1191 2394 c0 -43 4 -88 9 -99 4 -11 6 21 3 75 -7 117 -13 130 -12
24z"/>
<path d="M1027 2368 c-35 -49 -36 -53 -20 -70 13 -14 18 -16 25 -6 11 18 40
119 35 124 -2 2 -20 -19 -40 -48z"/>
<path d="M1372 2385 c-1 -22 -5 -57 -8 -78 -6 -36 -8 -37 -25 -21 -11 10 -19
13 -19 7 0 -11 32 -43 43 -43 11 0 18 63 14 120 -3 44 -4 47 -5 15z"/>
<path d="M1450 2382 c0 -16 -3 -38 -7 -48 -4 -11 -3 -15 4 -11 6 4 14 1 17 -5
3 -7 3 10 -1 37 -7 58 -13 72 -13 27z"/>
<path d="M1331 2384 c0 -11 3 -14 6 -6 3 7 2 16 -1 19 -3 4 -6 -2 -5 -13z"/>
<path d="M1718 2363 c7 -3 16 -2 19 1 4 3 -2 6 -13 5 -11 0 -14 -3 -6 -6z"/>
<path d="M1316 2345 c-3 -9 -6 -22 -5 -28 0 -7 5 -1 10 12 5 13 8 26 5 28 -2
2 -6 -3 -10 -12z"/>
<path d="M1336 2333 c-6 -14 -5 -15 5 -6 7 7 10 15 7 18 -3 3 -9 -2 -12 -12z"/>
<path d="M1411 2318 c-1 -39 13 -59 23 -32 4 9 4 19 1 22 -3 3 -6 -1 -6 -9 -1
-8 -5 2 -9 21 l-7 35 -2 -37z"/>
<path d="M1091 2324 c0 -11 3 -14 6 -6 3 7 2 16 -1 19 -3 4 -6 -2 -5 -13z"/>
<path d="M1505 2330 c-3 -5 -1 -10 4 -10 6 0 11 5 11 10 0 6 -2 10 -4 10 -3 0
-8 -4 -11 -10z"/>
<path d="M1056 2282 c-4 -29 -22 -80 -38 -115 -48 -98 -49 -102 -27 -115 25
-16 29 -15 29 6 0 9 11 51 24 92 l24 75 1 -65 c2 -81 9 -110 28 -110 13 0 14
11 9 71 -4 39 -12 83 -18 98 -5 14 -13 46 -17 71 l-7 45 -8 -53z"/>
<path d="M1220 2305 c0 -14 4 -25 9 -25 4 0 6 11 3 25 -2 14 -6 25 -8 25 -2 0
-4 -11 -4 -25z"/>
<path d="M1170 2305 c0 -5 5 -17 10 -25 5 -8 10 -10 10 -5 0 6 -5 17 -10 25
-5 8 -10 11 -10 5z"/>
<path d="M1102 2280 c0 -14 2 -19 5 -12 2 6 2 18 0 25 -3 6 -5 1 -5 -13z"/>
<path d="M1458 2289 c-26 -15 -22 -30 6 -23 21 5 23 3 19 -23 -4 -26 -3 -27
10 -10 10 12 17 14 22 8 10 -17 35 -13 35 5 0 9 -8 23 -17 31 -17 14 -17 14 2
8 11 -4 26 -9 33 -12 6 -3 12 2 12 11 0 13 -11 16 -52 16 -29 0 -61 -5 -70
-11z"/>
<path d="M1136 2261 c-5 -7 -4 -16 1 -20 6 -3 20 -28 32 -56 12 -27 29 -57 38
-67 10 -11 12 -18 4 -18 -6 0 -25 21 -42 48 -18 26 -29 38 -25 28 7 -19 6 -19
-13 -2 -19 17 -19 17 -7 -16 6 -18 15 -39 20 -46 5 -8 4 -18 -3 -25 -18 -18
-13 -64 14 -116 26 -52 66 -91 125 -121 43 -22 66 -53 75 -101 5 -29 3 -36
-17 -44 -18 -9 -29 -6 -53 11 -16 12 -58 32 -91 44 l-62 22 -121 -55 c-112
-50 -120 -55 -103 -70 33 -30 81 -35 141 -14 31 11 63 20 72 21 9 1 24 10 33
19 21 21 46 21 91 3 35 -15 44 -29 24 -41 -6 -4 -9 -32 -8 -64 1 -32 -1 -63
-6 -71 -5 -9 -4 -11 3 -6 8 5 12 -3 12 -22 0 -21 -8 -35 -26 -47 -28 -18 -49
-11 -23 8 17 13 35 52 19 42 -13 -8 -13 1 1 28 10 21 10 21 -5 3 -10 -12 -13
-28 -10 -40 6 -18 5 -19 -8 -8 -12 10 -18 8 -34 -9 -10 -12 -42 -36 -70 -55
-43 -29 -52 -41 -63 -81 -6 -27 -13 -68 -15 -93 -5 -59 -43 -211 -67 -268
l-20 -45 28 -30 c25 -27 26 -28 5 -18 -13 7 -26 19 -29 27 -3 10 -14 -2 -31
-33 -28 -55 -82 -126 -89 -119 -3 2 13 28 35 58 50 68 75 116 66 129 -4 6 -23
-21 -44 -60 -35 -66 -48 -86 -117 -171 -15 -18 -22 -31 -15 -26 6 4 12 3 12
-2 0 -15 -40 -62 -53 -62 -7 0 -18 -9 -25 -20 -10 -17 -10 -26 4 -51 14 -29
14 -31 -2 -27 -10 2 -21 14 -25 28 -5 23 -7 21 -18 -19 -7 -23 -10 -46 -7 -49
3 -3 6 1 6 9 0 11 18 15 74 16 80 3 116 15 186 62 25 17 46 27 48 22 2 -5 21
-7 42 -4 47 7 72 -1 64 -21 -5 -12 -10 -12 -41 1 -34 14 -38 13 -65 -7 -17
-13 -36 -19 -46 -15 -9 3 -13 3 -9 -1 4 -4 0 -15 -9 -25 -9 -10 -17 -29 -18
-43 0 -13 -4 -24 -8 -23 -11 3 -87 -73 -121 -121 l-32 -44 -22 26 c-32 38 -41
93 -17 111 11 8 29 15 41 15 28 0 78 19 70 26 -3 3 -21 0 -39 -6 -24 -9 -43
-9 -71 -2 -30 8 -37 8 -37 -3 0 -8 6 -12 14 -9 8 3 17 1 21 -5 5 -10 -7 -15
-27 -12 -28 4 20 -107 59 -140 16 -14 35 -40 41 -58 15 -42 15 -61 1 -41 -8
11 -8 9 -2 -10 10 -31 10 -117 1 -150 -6 -19 -4 -18 7 5 17 35 20 152 5 191
-9 23 -6 33 16 68 56 86 86 118 96 104 7 -9 8 -8 4 5 -4 11 2 29 14 44 11 14
20 34 20 45 0 10 8 22 18 25 9 4 28 15 41 25 25 19 67 25 56 8 -4 -6 -10 -8
-15 -5 -5 3 -4 -9 2 -27 6 -18 11 -43 12 -55 0 -11 4 -19 8 -17 15 9 18 -125
4 -201 l-14 -80 -1 72 c-1 39 -10 109 -21 154 -21 89 -32 114 -24 53 l5 -39
-19 23 c-35 39 -33 24 3 -23 19 -25 37 -62 41 -82 17 -88 -23 -277 -64 -303
-12 -8 -13 -10 -2 -7 24 6 67 77 92 152 30 91 33 280 5 332 -9 18 -17 34 -17
38 0 11 32 4 72 -15 23 -11 42 -19 43 -17 13 19 35 95 34 120 -1 30 -2 29 -11
-10 -11 -50 -20 -53 -53 -17 -31 33 -40 61 -25 79 7 8 9 23 4 37 -9 29 -6 80
6 114 8 19 7 25 -2 22 -7 -3 -23 -31 -35 -63 -24 -61 -57 -105 -80 -105 -15 0
-15 -2 24 155 17 67 25 123 24 170 -2 64 32 215 45 203 2 -3 -3 -25 -12 -49
-20 -58 -32 -185 -16 -175 8 5 12 0 12 -14 0 -31 43 -109 64 -116 10 -3 36
-22 57 -41 36 -32 42 -35 76 -27 l38 8 -35 3 c-45 5 -76 21 -95 50 -14 21 -14
25 1 48 9 14 21 25 27 25 6 0 22 10 35 23 14 12 22 16 17 8 -6 -10 -2 -12 13
-7 26 9 57 -6 103 -51 21 -20 48 -36 63 -36 27 -2 32 -12 16 -37 -8 -13 -10
-13 -10 1 0 9 -6 19 -14 22 -12 5 -12 -1 0 -40 18 -60 18 -121 -2 -196 -8 -34
-14 -71 -11 -84 2 -13 0 -23 -4 -23 -5 0 -9 -4 -9 -10 0 -5 14 -10 30 -10 17
0 30 -4 30 -9 0 -5 9 -7 20 -4 25 7 25 -1 -5 111 -49 182 -26 289 73 349 43
27 84 29 103 7 11 -14 10 -19 -11 -34 -13 -10 -31 -16 -39 -13 -13 4 -13 3 -2
-5 9 -7 24 -6 45 3 18 8 37 11 43 7 6 -4 14 -34 18 -67 4 -33 12 -71 17 -85 5
-14 10 -27 10 -30 0 -3 9 -11 19 -18 23 -16 24 -40 3 -71 l-17 -24 -19 39
c-11 22 -24 50 -28 64 -5 16 -9 19 -9 8 -1 -9 15 -52 33 -95 31 -70 38 -78 63
-79 50 -2 53 -4 65 -31 7 -16 29 -50 49 -78 48 -67 69 -149 59 -240 -4 -38
-15 -85 -24 -104 -10 -18 -13 -30 -7 -27 28 18 53 102 53 178 -1 96 -14 143
-55 205 -17 26 -38 61 -44 76 -16 34 -59 53 -81 35 -13 -11 -14 -9 -7 12 11
39 35 53 52 32 14 -16 14 -16 9 2 -5 14 -2 17 9 12 10 -3 13 -2 10 4 -4 6 -12
10 -18 9 -25 -3 -35 1 -41 17 -6 15 -4 15 11 3 10 -8 -6 12 -35 44 -58 65 -65
82 -60 152 l3 48 69 -104 c91 -135 156 -199 205 -199 57 0 68 -15 23 -28 -56
-17 -71 -15 -110 15 -30 23 -36 24 -46 11 -6 -8 -18 -13 -26 -11 -9 3 -8 0 3
-7 11 -7 30 -10 43 -7 14 2 27 0 30 -4 3 -5 -5 -10 -18 -10 -13 -1 1 -5 31 -9
40 -6 73 -4 125 9 65 16 101 40 59 40 -10 -1 -43 4 -73 9 -30 5 -60 8 -67 5
-7 -3 -18 7 -24 21 -7 14 -20 28 -30 31 -31 10 -1 45 38 45 25 0 31 4 27 15
-10 24 16 17 53 -15 18 -17 40 -30 48 -30 8 0 15 -5 15 -11 0 -13 -56 -3 -87
17 -13 8 -34 11 -53 8 -35 -7 -46 -19 -26 -27 18 -7 56 3 56 14 0 5 9 0 21
-12 20 -20 20 -21 2 -34 -10 -8 -13 -15 -7 -15 6 0 19 8 29 18 18 17 20 17 38
-1 26 -26 37 -8 37 61 0 47 -3 54 -25 62 -25 10 -35 30 -13 30 6 0 3 9 -7 20
-10 11 -15 20 -12 20 4 0 -3 21 -13 46 -30 69 -24 72 22 10 23 -31 43 -54 46
-52 2 3 0 11 -4 18 -4 7 -7 26 -6 43 1 16 -2 53 -7 80 -10 53 -37 194 -46 235
-2 14 5 -3 16 -38 11 -34 24 -60 28 -58 17 11 179 -274 206 -362 4 -13 9 -21
12 -19 2 3 -10 38 -27 77 -17 39 -29 74 -27 76 9 9 44 -60 108 -213 8 -18 20
-33 26 -33 18 0 16 17 -3 28 -9 5 -29 41 -44 79 -34 90 -98 195 -112 187 -7
-4 -8 -2 -4 5 5 7 -9 33 -32 64 -51 66 -132 197 -132 214 0 7 -20 73 -45 146
-25 74 -45 146 -45 160 0 33 -70 168 -83 160 -6 -4 -8 0 -4 10 3 9 -9 58 -28
109 -19 51 -34 88 -34 82 -1 -6 6 -31 14 -55 9 -24 13 -49 10 -57 -3 -8 0 -10
7 -6 8 5 9 2 5 -9 -3 -10 -2 -17 4 -17 6 0 8 -4 5 -9 -4 -5 0 -11 6 -14 7 -2
9 -8 5 -13 -11 -11 -54 38 -50 56 4 13 3 13 -5 1 -6 -9 -17 -11 -28 -7 -17 7
-17 5 1 -12 11 -11 22 -20 25 -20 19 0 23 -3 12 -10 -9 -7 -7 -24 10 -81 14
-47 24 -67 30 -59 6 10 8 10 8 -2 0 -8 -4 -21 -9 -29 -5 -8 -3 -27 5 -47 23
-54 15 -63 -11 -14 -13 25 -24 41 -25 36 0 -5 16 -38 35 -73 19 -35 35 -71 35
-81 1 -11 6 -6 15 13 11 22 13 24 9 6 -4 -13 -8 -39 -9 -57 -2 -18 -8 -41 -14
-51 -12 -21 -7 -31 -56 130 -36 122 -44 166 -25 137 8 -11 9 -7 4 15 -4 23 -3
26 5 15 17 -25 13 -5 -13 49 -12 28 -27 47 -31 43 -5 -4 -5 -2 -2 4 3 6 -3 33
-14 60 -11 28 -17 36 -13 19 3 -16 8 -41 10 -54 3 -13 9 -40 13 -60 7 -29 9
-31 10 -11 1 22 3 23 12 7 5 -9 7 -22 4 -27 -3 -6 -2 -10 3 -10 6 0 8 -10 4
-22 -5 -21 -6 -21 -13 -2 -13 32 -9 2 7 -61 9 -33 15 -70 15 -82 0 -13 3 -23
8 -23 5 0 7 -10 3 -22 -3 -15 -2 -19 7 -14 9 6 10 0 6 -21 -5 -22 -4 -25 5
-13 9 12 11 10 6 -10 -7 -36 4 -76 16 -58 7 9 8 3 4 -17 -4 -20 -3 -25 3 -16
6 10 13 -1 26 -38 9 -29 19 -50 21 -48 3 3 -4 27 -14 54 -18 48 -18 52 -2 73
15 20 17 20 17 4 -1 -75 4 -108 14 -94 8 11 9 9 3 -10 -4 -14 -7 -43 -6 -65 1
-39 0 -38 -25 28 -14 37 -27 66 -29 64 -5 -5 30 -106 50 -145 9 -17 16 -46 16
-63 0 -63 -89 142 -131 301 -21 80 -39 141 -40 135 -3 -25 4 -69 16 -99 8 -18
21 -63 30 -101 9 -38 36 -110 61 -159 54 -108 66 -169 36 -185 -16 -9 -35 -5
-91 17 -65 25 -72 30 -84 67 -25 72 -9 71 65 -1 39 -38 63 -57 53 -41 -10 15
-40 46 -67 70 l-49 42 7 84 c6 65 11 85 24 88 10 3 15 14 14 31 -1 15 -2 37
-3 50 0 13 -5 21 -10 18 -5 -3 -12 1 -15 10 -9 24 -7 31 5 14 9 -12 10 -12 5
3 -3 10 -6 28 -7 40 -1 16 -3 13 -10 -10 l-9 -33 -41 42 c-27 28 -43 55 -50
87 -17 80 -16 79 -69 83 l-49 3 6 -30 c7 -37 13 -45 13 -17 0 11 5 24 10 27 5
3 9 -2 9 -12 -2 -26 -16 -80 -18 -65 -1 8 -9 10 -25 6 -32 -8 -42 12 -19 38
10 11 18 30 18 41 0 14 9 23 25 28 14 4 18 7 9 8 -11 1 -18 14 -23 39 -3 22
-17 56 -32 77 -20 30 -23 40 -12 46 22 15 31 10 17 -8 -13 -16 -12 -17 4 -4
10 8 17 9 17 3 0 -6 11 -24 25 -40 14 -17 32 -48 40 -69 7 -21 14 -32 14 -25
1 7 -6 29 -15 50 -28 63 -34 103 -34 219 -1 92 -4 112 -17 117 -12 5 -13 3 -5
-7 13 -15 13 -149 1 -158 -5 -3 -2 -29 7 -58 19 -65 13 -75 -11 -21 -15 32
-16 49 -9 83 9 40 1 163 -11 175 -3 3 -11 0 -17 -6 -8 -8 -9 -12 -1 -12 7 0
10 -15 8 -37 -2 -35 -2 -36 5 -8 5 21 7 8 7 -45 0 -41 -2 -61 -4 -44 -2 19
-18 44 -38 64 -34 33 -35 33 -55 15 -24 -22 -20 -31 8 -16 15 8 23 7 30 -2 8
-10 2 -12 -28 -12 -44 1 -41 -1 -57 42 -9 28 -8 34 9 50 16 15 21 15 28 3 6
-8 10 -19 10 -23 0 -5 4 -6 9 -2 6 3 14 -3 20 -12 9 -17 11 -17 27 -1 16 16
16 17 -3 12 -17 -5 -20 -2 -16 19 3 15 10 24 18 21 12 -5 29 35 20 44 -8 8
-44 -43 -45 -63 -1 -19 -2 -18 -21 5 l-21 25 33 27 c18 16 39 28 46 28 7 0 13
7 13 15 0 20 -5 19 -47 -9 -34 -24 -36 -24 -87 -9 -28 8 -59 19 -68 24 -27 14
-31 11 -24 -23 4 -21 3 -29 -3 -23 -5 6 -11 22 -13 36 -2 15 -8 33 -14 40 -30
41 -72 136 -65 148 7 11 11 9 20 -5 8 -15 10 -16 11 -4 0 9 9 16 21 17 16 2
18 -1 9 -12 -12 -15 -6 -35 12 -35 5 0 8 7 4 15 -5 13 -2 14 15 4 24 -13 26
-12 31 21 3 24 0 25 -54 28 -48 3 -58 0 -71 -18 -15 -21 -15 -21 -24 6 -7 20
-12 24 -17 15z m149 -21 c3 -6 -1 -7 -9 -4 -18 7 -21 14 -7 14 6 0 13 -4 16
-10z m-113 -112 c13 -25 15 -30 17 -54 0 -8 6 -12 11 -9 6 4 8 11 5 16 -3 5 1
6 8 3 13 -5 31 -44 24 -51 -2 -1 -23 10 -47 24 -24 15 -39 28 -32 31 9 3 8 11
-3 33 -18 34 -2 40 17 7z m83 -136 c100 -95 107 -107 140 -229 11 -42 -11 -23
-36 30 -16 35 -34 56 -54 66 -74 35 -138 108 -150 173 -7 33 43 13 100 -40z
m61 4 c8 -3 14 1 14 9 0 8 4 15 10 15 5 0 9 -10 7 -22 -1 -14 4 -23 12 -23 19
0 25 -20 9 -33 -21 -17 -78 40 -77 75 1 23 3 24 6 6 2 -12 11 -24 19 -27z m88
5 c3 -5 -1 -14 -8 -21 -12 -9 -17 -7 -26 9 -9 18 -8 21 9 21 11 0 22 -4 25 -9z
m55 -193 c1 -3 -8 -4 -19 -1 -23 6 -25 -4 -6 -29 19 -26 22 -23 35 28 13 52
25 49 34 -7 4 -28 1 -42 -14 -58 -10 -11 -19 -25 -19 -31 0 -12 -7 -12 -35 0
-11 5 -15 9 -8 9 8 1 4 21 -12 61 -13 33 -20 60 -15 60 5 0 12 -5 16 -11 4 -8
10 -5 17 7 10 17 11 17 18 -1 4 -11 8 -23 8 -27z m-307 -100 c-4 -4 -38 -19
-77 -33 -48 -19 -79 -25 -102 -20 -31 6 -47 25 -20 25 6 0 46 17 87 38 l75 38
22 -20 c12 -12 19 -24 15 -28z m86 14 c39 -18 37 -25 -4 -12 -16 5 -41 12 -56
15 -16 3 -28 10 -28 15 0 12 41 4 88 -18z m199 -27 c42 -30 68 -77 69 -130 3
-82 -33 -127 -88 -109 -13 4 -40 8 -60 9 -45 2 -83 31 -67 51 13 16 8 60 -7
57 -13 -2 -8 61 7 88 5 11 19 19 30 19 16 0 19 -4 14 -22 -4 -13 -14 -34 -22
-48 l-14 -25 20 24 c12 13 22 31 23 40 2 31 4 36 11 49 11 17 58 15 84 -3z
m487 -151 c9 -26 19 -75 22 -110 4 -35 10 -64 13 -64 4 0 13 -22 20 -50 7 -27
18 -50 24 -50 5 0 7 -3 4 -7 -4 -3 -2 -12 4 -19 6 -7 8 -23 4 -34 -6 -20 -10
-17 -41 29 -19 27 -34 56 -34 63 0 7 10 -2 21 -19 28 -44 36 -42 10 3 -12 19
-21 45 -22 57 -1 14 -5 8 -11 -16 -10 -37 -8 -42 36 -107 44 -65 49 -77 72
-206 32 -176 29 -197 -15 -126 -19 28 -35 52 -36 52 -9 0 5 -82 19 -108 9 -17
12 -32 7 -32 -6 0 -8 -7 -5 -15 4 -8 1 -15 -5 -15 -6 0 -23 25 -37 56 -21 45
-26 76 -30 156 -2 55 -7 104 -10 110 -4 6 -3 8 3 5 6 -4 16 -56 23 -117 8 -60
15 -108 17 -106 7 6 7 81 0 101 -18 53 -50 291 -51 380 -1 97 -23 195 -49 220
-7 7 -7 4 -2 -10 16 -42 45 -150 45 -170 -1 -20 -1 -20 -16 0 -15 19 -15 19
-9 -10 l7 -30 -15 25 c-8 16 -11 31 -5 42 12 25 10 47 -3 28 -8 -11 -9 -6 -4
20 5 27 4 32 -5 20 -9 -12 -10 -9 -5 13 7 32 -2 70 -15 62 -4 -3 -11 7 -14 23
-4 15 -9 36 -13 47 -5 20 -5 20 12 0 16 -20 16 -20 5 3 -6 12 -15 22 -21 22
-6 0 -7 5 -3 12 12 18 90 -74 108 -128z m-634 -5 c0 -11 -4 -18 -10 -14 -5 3
-7 12 -3 20 7 21 13 19 13 -6z m340 -104 c0 -34 5 -55 13 -58 9 -3 6 -22 -12
-78 -46 -146 -84 -213 -163 -290 l-73 -72 40 7 40 8 -19 -21 c-18 -20 -21 -20
-44 -5 -17 11 -27 13 -35 5 -17 -17 -45 -13 -77 10 -23 18 -36 20 -67 14 -21
-4 -46 -7 -55 -8 -9 -1 -15 -4 -12 -8 2 -4 -3 -12 -11 -19 -7 -6 -11 -18 -8
-26 3 -8 0 -14 -7 -14 -6 0 -9 4 -6 9 4 5 0 11 -6 14 -9 3 -7 10 7 21 20 17
20 17 -2 7 -20 -10 -22 -8 -28 44 -4 30 -4 70 -1 87 4 18 9 63 11 100 3 38 10
79 15 94 13 34 12 56 -2 24 -17 -42 -37 -171 -38 -240 0 -67 6 -98 34 -162 14
-33 14 -37 1 -32 -9 4 -27 26 -41 50 -35 59 -43 167 -20 247 9 32 14 62 11 67
-3 6 -1 10 4 10 6 0 11 5 11 10 0 6 9 29 19 51 11 22 18 46 16 52 -17 56 -15
63 19 77 19 7 40 24 47 37 7 12 14 21 16 19 3 -2 -7 -26 -22 -53 -14 -26 -24
-38 -21 -25 4 19 2 21 -10 11 -10 -8 -12 -15 -4 -23 14 -14 13 -29 -2 -20 -7
5 -8 3 -3 -5 5 -9 15 -4 34 17 14 16 42 41 62 55 35 25 40 26 100 17 89 -13
172 -27 207 -35 29 -6 30 -5 37 43 6 43 9 49 26 45 16 -4 19 -14 19 -58z m56
-96 c3 -6 -5 -23 -20 -37 -14 -15 -26 -21 -26 -14 0 7 7 15 15 18 10 4 13 13
10 25 -7 20 9 26 21 8z m-590 -36 c-18 -33 -21 -26 -6 13 6 15 13 24 16 21 3
-3 -1 -18 -10 -34z m649 -30 c14 -21 25 -49 24 -63 0 -23 -2 -22 -15 10 l-14
35 6 -42 c6 -45 -11 -63 -19 -20 -2 12 -2 4 0 -18 2 -22 6 -55 9 -74 5 -25 3
-32 -5 -27 -8 6 -10 0 -5 -18 3 -14 2 -38 -4 -54 -8 -22 -5 -44 14 -101 31
-97 30 -105 -7 -46 -21 33 -29 56 -26 74 5 23 4 24 -8 7 -8 -10 -12 -23 -11
-29 2 -7 1 -9 -1 -5 -2 4 -11 4 -19 1 -20 -7 -18 4 6 35 l21 25 -26 27 c-23
24 -24 28 -10 40 8 7 15 17 15 23 0 6 -11 -4 -25 -23 -19 -25 -22 -37 -14 -47
13 -15 23 -18 14 -3 -3 6 -1 10 4 10 6 0 12 -4 12 -10 1 -5 2 -16 3 -22 3 -23
-15 -25 -54 -7 -22 11 -47 19 -57 19 -10 0 -24 4 -32 9 -10 6 -25 4 -44 -5
-16 -9 -31 -13 -34 -11 -6 7 80 57 98 57 8 0 21 6 28 13 10 10 11 8 5 -7 -6
-16 -3 -17 17 -12 23 7 23 6 5 -8 -11 -9 -14 -16 -8 -16 12 0 72 85 72 101 0
4 -7 6 -16 5 -9 0 -19 4 -21 10 -2 6 7 10 19 10 18 -1 24 5 26 27 2 16 -4 39
-12 52 -9 13 -16 29 -16 35 0 18 51 80 66 80 7 0 25 -17 39 -37z m112 -15 c-3
-8 -6 -5 -6 6 -1 11 2 17 5 13 3 -3 4 -12 1 -19z m-217 -57 c0 -5 3 -16 6 -25
4 -12 0 -16 -17 -17 l-24 -1 23 -6 c25 -7 27 -28 3 -25 -8 1 -20 -5 -28 -12
-11 -12 -10 -16 7 -25 14 -7 20 -19 18 -33 -5 -36 -30 -25 -43 20 -11 35 -10
44 1 54 8 6 14 18 14 26 0 20 19 53 30 53 6 0 10 -4 10 -9z m-70 -127 c0 -14
-4 -23 -10 -19 -5 3 -10 1 -10 -4 0 -6 -7 -11 -15 -11 -21 0 -19 8 8 36 27 29
27 29 27 -2z m-565 -126 c-9 -50 -12 -55 -26 -41 -8 8 -8 21 1 47 16 51 33 46
25 -6z m518 -9 c-5 -4 -17 -9 -28 -11 -12 -2 -20 -11 -20 -23 0 -11 -13 -27
-31 -37 -30 -18 -31 -18 -53 6 -19 20 -20 24 -6 30 9 3 13 2 10 -4 -16 -25 34
-5 70 28 22 20 36 34 31 30 -6 -5 -15 -8 -20 -8 -6 0 -2 7 9 16 18 13 21 13
32 -3 7 -9 10 -20 6 -24z m705 -74 c-3 -3 -9 2 -12 12 -6 14 -5 15 5 6 7 -7
10 -15 7 -18z m-1252 -43 c-4 -21 -8 -48 -10 -61 -2 -14 -11 -30 -20 -37 -10
-7 -21 -25 -25 -41 -10 -38 -51 -57 -107 -48 -49 7 -51 10 -26 38 9 11 11 17
5 13 -23 -13 -13 10 14 35 22 19 24 20 10 3 -18 -21 -18 -22 0 -20 15 1 17 -5
15 -34 -3 -43 9 -31 32 33 21 55 16 73 -6 26 -9 -17 -18 -27 -22 -21 -3 5 8
27 25 48 41 52 43 53 35 24 -6 -19 -5 -21 3 -10 6 8 11 21 11 28 0 7 7 28 15
48 13 32 17 34 36 24 18 -10 20 -18 15 -48z m812 39 c9 -6 38 -17 64 -27 27
-9 45 -21 41 -27 -3 -5 -1 -7 5 -3 6 3 24 -13 41 -38 l30 -45 -42 -15 c-23 -9
-52 -15 -63 -14 -20 2 -21 3 -6 23 9 12 27 22 41 23 29 2 35 7 26 21 -7 13
-38 0 -71 -30 -21 -19 -21 -19 -39 21 -10 22 -21 40 -25 40 -4 0 -12 18 -18
40 -11 43 -10 45 16 31z m166 -43 c18 -25 20 -38 7 -38 -15 0 -41 30 -41 46 0
21 17 17 34 -8z m44 -76 c2 -12 -1 -22 -7 -22 -6 0 -11 4 -11 9 0 5 -3 17 -7
27 -4 12 -2 15 8 12 8 -2 15 -14 17 -26z m48 -27 c31 -53 23 -73 -12 -32 -20
24 -34 77 -19 77 2 0 16 -20 31 -45z m-980 -10 c-3 -8 0 -15 7 -18 17 -5 -51
-84 -79 -91 -14 -4 -29 -4 -34 -1 -4 3 -32 -11 -61 -30 -29 -19 -56 -32 -60
-29 -5 3 -22 -2 -38 -11 -45 -23 -74 -19 -88 11 -10 22 -9 24 5 20 9 -3 38 -6
64 -7 56 -3 82 14 73 48 -6 27 -5 27 30 11 20 -9 28 -9 38 1 9 10 9 11 -4 6
-25 -9 -33 12 -10 24 21 12 71 15 71 5 0 -3 -5 -15 -10 -27 -6 -12 5 -4 26 18
20 22 41 52 46 67 6 16 14 25 20 22 5 -3 7 -12 4 -19z m-121 -25 c3 -5 1 -10
-4 -10 -6 0 -11 5 -11 10 0 6 2 10 4 10 3 0 8 -4 11 -10z m935 -10 c0 -5 -4
-10 -10 -10 -5 0 -10 5 -10 10 0 6 5 10 10 10 6 0 10 -4 10 -10z m-120 -95
c-7 -19 -14 -25 -21 -18 -7 7 -5 23 7 49 14 32 18 35 21 18 2 -11 -1 -33 -7
-49z m-690 35 c0 -5 12 -21 28 -35 21 -20 23 -24 7 -18 -11 4 -26 12 -32 19
-7 7 -18 14 -25 16 -6 2 -8 10 -4 16 9 14 26 16 26 2z m-239 -10 c46 -25 3
-43 -79 -33 -55 6 -65 22 -21 34 37 11 78 10 100 -1z m599 -15 c0 -8 -4 -15
-10 -15 -5 0 -7 7 -4 15 4 8 8 15 10 15 2 0 4 -7 4 -15z m-315 -55 c17 -19 17
-19 -13 -8 -17 7 -29 16 -26 20 8 13 20 9 39 -12z m320 -10 c-16 -18 -35 -19
-35 -1 0 9 43 31 49 25 2 -2 -4 -13 -14 -24z m25 -30 c0 -5 -7 -10 -16 -10 -8
0 -12 5 -9 10 3 6 10 10 16 10 5 0 9 -4 9 -10z m-662 -141 c-13 -17 -31 -43
-40 -57 -10 -15 -18 -21 -18 -13 0 8 16 34 36 57 40 50 57 60 22 13z"/>
<path d="M1416 1592 c-15 -17 -15 -20 -1 -32 9 -7 18 -10 22 -6 3 3 2 6 -4 6
-5 0 -10 7 -10 15 0 18 9 19 25 3 6 -6 14 -9 17 -6 3 2 -3 12 -13 21 -18 16
-20 16 -36 -1z"/>
<path d="M1324 1499 c-4 -7 -3 -9 4 -5 5 3 13 0 15 -6 4 -9 6 -10 6 -1 1 17
-16 25 -25 12z"/>
<path d="M2001 1224 c0 -11 3 -14 6 -6 3 7 2 16 -1 19 -3 4 -6 -2 -5 -13z"/>
<path d="M1385 1410 c-3 -6 1 -7 9 -4 18 7 21 14 7 14 -6 0 -13 -4 -16 -10z"/>
<path d="M1334 1381 c-32 -20 -52 -41 -37 -41 8 1 81 60 73 60 -3 0 -19 -9
-36 -19z"/>
<path d="M1330 1338 c-25 -22 -38 -37 -30 -32 8 5 21 9 27 10 13 2 27 15 52
47 24 31 -3 17 -49 -25z"/>
<path d="M1452 1343 c-17 -20 -30 -39 -27 -41 6 -7 75 58 75 70 0 16 -16 7
-48 -29z"/>
<path d="M1169 1324 c-21 -51 -19 -70 4 -32 16 25 31 78 22 78 -3 0 -15 -21
-26 -46z"/>
<path d="M1136 1327 c3 -10 9 -15 12 -12 3 3 0 11 -7 18 -10 9 -11 8 -5 -6z"/>
<path d="M1192 1277 c-22 -24 -58 -105 -49 -113 2 -3 22 19 43 48 22 29 44 60
51 68 19 26 -21 23 -45 -3z"/>
<path d="M1367 1275 c-20 -14 -37 -30 -37 -34 0 -9 -82 -51 -100 -51 -11 0 -9
28 3 48 5 6 6 12 2 12 -6 0 -65 -91 -65 -101 0 -4 33 6 73 23 49 20 88 45 122
79 56 55 57 60 2 24z"/>
<path d="M1544 1289 c-10 -17 13 -36 27 -22 12 12 4 33 -11 33 -5 0 -12 -5
-16 -11z m26 -9 c0 -5 -4 -10 -10 -10 -5 0 -10 5 -10 10 0 6 5 10 10 10 6 0
10 -4 10 -10z"/>
<path d="M1393 1258 c-11 -13 -38 -48 -61 -79 -43 -60 -78 -97 -144 -153 -23
-20 -37 -36 -30 -36 6 0 13 4 17 10 3 5 30 17 60 26 32 10 55 24 55 31 0 8 -4
11 -10 8 -5 -3 -10 -2 -10 3 0 13 35 43 42 36 3 -3 12 9 19 25 8 17 18 31 22
31 5 0 6 4 3 9 -3 5 2 19 12 32 25 33 53 79 49 79 -2 0 -13 -10 -24 -22z"/>
<path d="M1257 1000 c-26 -16 -47 -32 -47 -34 0 -11 67 19 90 41 35 32 13 29
-43 -7z"/>
<path d="M1341 949 c-13 -5 -21 -12 -18 -15 3 -3 18 1 34 10 31 17 21 20 -16
5z"/>
<path d="M1696 1179 c3 -32 1 -49 -9 -58 -17 -13 -11 -55 9 -72 16 -13 19 -33
4 -24 -6 4 -10 -6 -9 -22 l0 -28 16 32 c15 29 15 34 1 50 -20 24 -30 53 -18
53 15 0 21 42 10 80 -9 33 -9 32 -4 -11z"/>
<path d="M1537 1003 c-21 -6 -13 -23 12 -23 10 0 18 7 18 15 0 8 -3 14 -6 14
-3 -1 -14 -3 -24 -6z"/>
<path d="M1600 977 c0 -3 12 -12 26 -22 15 -9 23 -12 20 -6 -7 11 -46 35 -46
28z"/>
<path d="M887 730 c-4 -14 -6 -38 -6 -55 l1 -30 9 34 c6 18 9 43 7 55 -3 20
-4 19 -11 -4z"/>
<path d="M874 568 l-19 -23 23 19 c12 11 22 21 22 23 0 8 -8 2 -26 -19z"/>
<path d="M1505 2210 l-30 -8 27 -1 c15 0 30 4 33 9 3 6 5 9 3 9 -2 -1 -16 -5
-33 -9z"/>
<path d="M1273 2182 c-13 -2 -23 -8 -23 -13 0 -9 37 -3 49 7 8 7 -4 10 -26 6z"/>
<path d="M1702 2125 c1 -46 2 -51 6 -20 4 37 6 31 32 -65 15 -58 35 -121 44
-140 9 -19 14 -26 10 -15 -3 11 -19 70 -36 130 -16 61 -36 124 -43 140 -13 29
-14 28 -13 -30z"/>
<path d="M1681 2154 c0 -11 3 -14 6 -6 3 7 2 16 -1 19 -3 4 -6 -2 -5 -13z"/>
<path d="M1525 2130 c-10 -11 -13 -20 -8 -20 13 0 38 29 31 35 -3 3 -13 -4
-23 -15z"/>
<path d="M1663 2085 c0 -27 2 -38 4 -22 2 15 2 37 0 50 -2 12 -4 0 -4 -28z"/>
<path d="M1682 2105 c0 -16 2 -22 5 -12 2 9 2 23 0 30 -3 6 -5 -1 -5 -18z"/>
<path d="M1270 2090 c0 -5 5 -10 11 -10 5 0 7 5 4 10 -3 6 -8 10 -11 10 -2 0
-4 -4 -4 -10z"/>
<path d="M1557 2060 c-3 -11 -1 -20 4 -20 5 0 9 9 9 20 0 11 -2 20 -4 20 -2 0
-6 -9 -9 -20z"/>
<path d="M1586 2058 c3 -5 10 -6 15 -3 13 9 11 12 -6 12 -8 0 -12 -4 -9 -9z"/>
<path d="M1030 1948 c-18 -46 -50 -118 -72 -161 -31 -62 -35 -76 -20 -68 11 6
35 41 55 79 44 83 61 126 47 117 -14 -9 -12 7 4 41 17 35 29 74 23 74 -2 0
-19 -37 -37 -82z m-30 -117 c-41 -83 -47 -77 -7 7 18 38 33 65 35 61 2 -4 -11
-35 -28 -68z"/>
<path d="M1544 2004 c-4 -14 -2 -30 4 -36 6 -6 11 2 14 26 5 41 -8 49 -18 10z"/>
<path d="M1109 1978 c-2 -27 -3 -48 -2 -48 10 0 18 41 13 65 -6 27 -7 25 -11
-17z"/>
<path d="M1693 1970 c0 -25 2 -35 4 -22 2 12 2 32 0 45 -2 12 -4 2 -4 -23z"/>
<path d="M1603 1950 c0 -25 2 -35 4 -22 2 12 2 32 0 45 -2 12 -4 2 -4 -23z"/>
<path d="M1671 1948 c3 -27 0 -50 -6 -52 -6 -2 -5 -9 3 -17 6 -7 12 -23 12
-35 0 -13 5 -26 12 -30 8 -5 9 3 4 32 -4 21 -10 62 -13 89 -7 64 -16 75 -12
13z"/>
<path d="M1571 1909 c-2 -116 23 -233 79 -374 28 -69 53 -139 57 -155 3 -17 9
-30 14 -30 7 0 -41 152 -60 189 -5 9 -5 25 -2 35 6 14 13 4 31 -45 13 -35 23
-69 22 -76 -2 -6 1 -14 6 -17 5 -3 7 9 5 27 -10 82 -8 162 5 159 10 -2 10 2 2
17 -5 11 -10 36 -10 56 0 35 -1 36 -32 34 -49 -4 -62 -18 -41 -41 14 -16 15
-22 4 -40 -7 -11 -8 -17 -2 -13 13 7 15 -34 2 -53 -10 -16 -45 102 -37 124 3
8 1 14 -5 14 -6 0 -7 5 -4 10 5 8 11 7 21 -1 11 -9 15 -8 20 5 3 9 11 13 18 9
6 -3 4 2 -6 13 -9 10 -21 35 -27 54 l-11 35 6 -38 c3 -21 8 -45 11 -53 3 -10
0 -12 -10 -9 -11 5 -14 24 -14 78 0 53 2 66 9 48 12 -33 77 -121 90 -121 5 0
-4 17 -21 38 -16 21 -36 51 -43 68 -13 29 -26 44 -40 44 -5 0 -8 -37 -9 -82
-1 -109 -8 -88 -18 53 -8 106 -8 109 -10 38z m129 -231 c10 -23 16 -47 12 -52
-3 -6 -12 3 -18 19 -18 41 -17 9 1 -40 8 -22 14 -51 14 -65 0 -18 -5 -12 -19
24 -16 42 -26 156 -13 156 2 0 12 -19 23 -42z"/>
<path d="M1080 1944 c0 -14 -5 -34 -10 -45 -8 -15 -7 -19 4 -19 8 0 16 -6 19
-12 3 -7 4 13 3 44 -1 56 -16 85 -16 32z"/>
<path d="M1722 1930 c0 -19 2 -27 5 -17 2 9 2 25 0 35 -3 9 -5 1 -5 -18z"/>
<path d="M1131 1928 c-16 -42 -23 -125 -12 -133 7 -4 11 3 12 17 0 13 2 32 5
43 17 82 15 124 -5 73z"/>
<path d="M1697 1907 c-3 -8 -1 -20 4 -28 6 -10 9 -7 9 14 0 29 -5 35 -13 14z"/>
<path d="M1740 1891 c0 -5 5 -13 10 -16 6 -3 10 -2 10 4 0 5 -4 13 -10 16 -5
3 -10 2 -10 -4z"/>
<path d="M1056 1848 c-19 -32 -29 -78 -16 -78 13 0 33 49 26 66 -2 6 1 17 7
23 6 6 8 11 4 11 -3 0 -13 -10 -21 -22z"/>
<path d="M1707 1828 c-3 -18 -2 -36 2 -41 4 -4 8 11 9 33 3 48 -4 53 -11 8z"/>
<path d="M1242 1820 c0 -19 2 -27 5 -17 2 9 2 25 0 35 -3 9 -5 1 -5 -18z"/>
<path d="M1080 1816 c0 -14 4 -27 8 -30 5 -3 6 8 4 25 -5 35 -12 38 -12 5z"/>
<path d="M1211 1809 c-14 -42 -7 -49 9 -9 7 17 10 33 8 36 -3 3 -11 -9 -17
-27z"/>
<path d="M1770 1834 c0 -6 7 -19 16 -30 14 -18 14 -18 3 6 -14 31 -19 36 -19
24z"/>
<path d="M1266 1807 c-3 -15 -13 -27 -21 -27 -17 0 -20 -16 -6 -25 5 -3 17 5
26 17 l17 23 -6 -27 c-4 -17 -2 -28 4 -28 12 0 12 46 1 75 -7 17 -8 17 -15 -8z"/>
<path d="M1730 1797 c0 -20 5 -39 11 -42 7 -5 8 5 3 32 -9 51 -14 54 -14 10z"/>
<path d="M1321 1768 c0 -14 -4 -35 -7 -45 -5 -17 -5 -17 6 0 6 10 9 30 7 45
l-4 27 -2 -27z"/>
<path d="M1790 1760 c-6 -11 -8 -20 -6 -20 3 0 10 9 16 20 6 11 8 20 6 20 -3
0 -10 -9 -16 -20z"/>
<path d="M1161 1652 c-6 -12 -9 -22 -5 -22 3 0 1 -7 -6 -15 -10 -12 -10 -15 3
-15 18 0 47 37 47 60 0 12 -2 12 -9 1 -7 -11 -9 -11 -13 0 -3 10 -8 7 -17 -9z"/>
<path d="M843 1582 c-22 -37 -69 -112 -104 -167 -98 -155 -151 -290 -165 -421
-5 -46 -16 -70 -60 -134 -72 -105 -144 -245 -143 -278 1 -23 2 -21 10 11 8 36
37 96 59 127 9 11 10 6 5 -25 -4 -22 -12 -47 -18 -55 -10 -13 -10 -13 4 -2 10
7 20 29 24 50 8 44 41 121 79 181 21 33 30 41 37 30 6 -10 9 -6 9 14 0 15 4
27 10 27 5 0 9 -16 8 -35 -1 -20 4 -41 10 -47 8 -8 9 5 5 47 l-6 58 79 73 c81
75 98 104 22 37 -24 -21 -36 -29 -27 -18 9 11 62 75 119 143 56 68 120 154
142 190 47 78 53 85 43 53 -4 -15 -3 -21 3 -17 5 3 12 15 15 26 3 11 1 18 -4
14 -13 -8 -11 -1 11 47 l21 44 -6 -50 -5 -50 15 33 c10 24 12 39 5 52 -6 10
-10 25 -10 32 1 7 7 2 14 -11 11 -20 14 -21 19 -6 10 25 8 32 -4 15 -7 -11 -8
-4 -5 25 4 31 4 34 -3 15 -5 -14 -9 -21 -10 -15 -1 5 -28 -45 -61 -110 -53
-108 -147 -251 -157 -241 -2 2 3 21 12 41 8 21 13 40 10 43 -2 3 -8 -4 -11
-14 -35 -96 -53 -124 -144 -230 -55 -63 -98 -119 -95 -125 4 -5 1 -9 -6 -9
-20 0 9 164 43 235 l19 40 -6 -35 c-3 -19 10 6 28 55 42 113 44 117 133 247
87 127 97 145 86 152 -4 2 -26 -25 -49 -62z"/>
<path d="M1106 1638 c-20 -74 -28 -116 -28 -131 0 -9 -3 -15 -8 -12 -5 3 -21
-17 -36 -45 -15 -27 -31 -47 -35 -44 -5 3 -6 -3 -2 -12 4 -12 3 -15 -5 -10 -7
4 -10 2 -6 -7 3 -8 -2 -14 -11 -14 -18 0 -18 2 -4 30 20 38 3 16 -70 -93 -38
-58 -84 -123 -102 -145 l-31 -40 36 37 c20 22 36 32 36 23 0 -7 -4 -16 -9 -19
-4 -3 -8 -47 -8 -98 l0 -93 6 92 c5 71 11 96 26 114 11 12 14 19 8 15 -24 -14
-13 13 38 94 55 86 75 101 38 28 -12 -23 -21 -44 -20 -46 1 -1 -10 -25 -24
-52 -21 -41 -25 -64 -24 -118 1 -62 -9 -99 -48 -174 -2 -5 -2 -8 2 -8 3 0 10
11 15 25 5 14 17 25 26 25 12 0 15 7 11 26 -3 17 -1 24 8 20 8 -3 11 2 8 15
-3 10 0 26 7 33 6 8 12 35 13 60 1 31 5 40 11 29 7 -13 11 -10 28 13 10 16 26
43 34 59 l16 30 -26 -30 c-14 -16 -25 -25 -26 -18 0 6 -3 19 -7 29 -5 13 -3
15 7 9 8 -5 11 -4 6 3 -9 14 10 47 52 92 34 36 35 35 17 -30 -4 -14 -4 -22 1
-17 4 4 25 74 46 155 21 81 35 127 32 102 -3 -25 -12 -69 -19 -98 -13 -52 -13
-53 5 -37 10 9 21 32 25 52 10 55 12 164 3 169 -5 3 -6 10 -3 15 4 5 4 9 0 9
-3 0 -7 -6 -9 -12z m-46 -206 c-9 -38 -22 -60 -61 -96 -27 -25 -48 -50 -47
-54 1 -4 -3 -17 -10 -29 -8 -15 -9 -29 -2 -47 11 -29 3 -59 -12 -50 -6 4 -7
21 -4 38 4 24 3 27 -5 14 -5 -10 -12 -40 -15 -68 -2 -27 -9 -60 -14 -72 -7
-18 -9 -10 -9 35 -1 43 6 71 24 107 14 28 23 50 19 50 -7 0 34 59 63 89 13 14
36 51 51 82 15 32 29 56 31 54 2 -2 -2 -26 -9 -53z"/>
<path d="M1231 1604 c-6 -14 -9 -29 -6 -34 3 -5 -9 -24 -26 -42 -29 -30 -30
-30 -15 -6 11 18 14 37 10 55 -7 25 -8 25 -20 8 -19 -26 -17 -40 3 -24 11 9 9
3 -5 -15 -13 -17 -22 -40 -20 -52 2 -12 -6 -31 -16 -43 -11 -12 -14 -21 -8
-21 19 0 111 130 105 147 -4 9 -2 14 3 11 5 -4 10 5 10 18 2 30 0 30 -15 -2z"/>
<path d="M940 1564 c-11 -25 -20 -48 -20 -51 0 -2 -16 -41 -36 -86 -26 -60
-33 -86 -26 -101 7 -17 10 -14 20 25 6 25 31 93 56 152 24 59 40 107 34 107
-5 0 -18 -21 -28 -46z"/>
<path d="M1728 1583 c5 -21 7 -23 10 -9 2 10 0 22 -6 28 -6 6 -7 0 -4 -19z"/>
<path d="M1742 1530 c0 -14 2 -19 5 -12 2 6 2 18 0 25 -3 6 -5 1 -5 -13z"/>
<path d="M1588 1533 c6 -2 18 -2 25 0 6 3 1 5 -13 5 -14 0 -19 -2 -12 -5z"/>
<path d="M1740 1480 c0 -11 5 -20 10 -20 6 0 10 9 10 20 0 11 -4 20 -10 20 -5
0 -10 -9 -10 -20z"/>
<path d="M1758 1427 c-3 -19 -2 -25 4 -19 6 6 8 18 6 28 -3 14 -5 12 -10 -9z"/>
<path d="M1730 1405 c0 -5 5 -17 10 -25 5 -8 10 -10 10 -5 0 6 -5 17 -10 25
-5 8 -10 11 -10 5z"/>
<path d="M1007 1198 c-35 -92 -75 -243 -68 -256 7 -13 53 126 80 242 15 62 9
69 -12 14z"/>
<path d="M1780 1162 c0 -6 5 -14 10 -17 6 -4 8 -10 5 -14 -2 -5 7 -32 21 -61
14 -29 30 -81 36 -114 6 -34 13 -55 16 -48 7 22 -17 136 -38 177 -11 21 -20
44 -20 51 0 6 -7 17 -15 24 -9 8 -15 9 -15 2z"/>
<path d="M621 1100 c-6 -28 -11 -59 -10 -68 1 -9 7 12 15 47 8 35 12 66 10 68
-2 3 -9 -19 -15 -47z"/>
<path d="M771 1084 c-1 -6 -23 -45 -51 -86 -50 -75 -109 -195 -90 -183 6 4 7
-5 4 -24 -4 -18 -2 -37 5 -45 6 -7 9 -20 6 -28 -7 -17 14 -37 45 -43 13 -2 20
-2 17 1 -2 3 8 19 24 36 15 17 26 35 23 39 -2 4 12 37 32 74 20 36 34 69 30
72 -3 3 -10 -7 -16 -22 -13 -33 -89 -164 -101 -170 -4 -3 -20 10 -35 30 -25
33 -26 37 -15 82 15 59 50 132 96 202 20 30 34 59 31 65 -3 8 -5 8 -5 0z m-91
-379 c7 -9 11 -17 8 -20 -2 -2 -12 4 -21 15 -9 11 -13 20 -8 20 5 0 14 -7 21
-15z"/>
<path d="M1787 1053 l4 -28 -15 25 c-8 14 -15 20 -16 14 0 -13 58 -101 73
-111 6 -4 8 -1 5 8 -3 8 -14 34 -23 59 -22 56 -34 70 -28 33z"/>
<path d="M2076 1019 c14 -54 21 -108 32 -249 4 -54 7 -67 11 -45 l6 30 42 -52
c23 -29 43 -58 45 -65 3 -8 21 -11 49 -10 34 2 40 0 27 -8 -9 -6 -28 -9 -42
-6 -18 3 -23 1 -19 -10 6 -15 93 -21 93 -5 0 4 -5 22 -11 39 -11 34 -75 67
-105 55 -12 -4 -15 -3 -10 5 4 7 2 12 -4 12 -5 0 -23 12 -39 28 -24 23 -29 38
-36 97 -10 98 -33 217 -44 228 -6 6 -3 -14 5 -44z m194 -371 c0 -12 -25 -9
-38 4 -20 20 -14 27 13 15 14 -7 25 -15 25 -19z"/>
<path d="M776 981 c3 -29 9 -61 14 -70 8 -12 10 -9 7 14 -2 17 -7 37 -10 45
-3 8 -8 26 -10 40 -3 14 -3 1 -1 -29z"/>
<path d="M861 928 c0 -13 4 -32 9 -43 7 -15 9 -10 9 23 1 23 -3 42 -9 42 -5 0
-10 -10 -9 -22z"/>
<path d="M1050 890 c6 -11 13 -20 16 -20 2 0 0 9 -6 20 -6 11 -13 20 -16 20
-2 0 0 -9 6 -20z"/>
<path d="M583 835 c6 -25 12 -43 15 -41 7 7 -9 86 -17 86 -5 0 -4 -20 2 -45z"/>
<path d="M1338 825 c-6 -14 -15 -25 -20 -25 -4 0 -17 -9 -28 -20 -14 -14 -16
-20 -6 -20 20 0 76 55 76 74 0 23 -9 20 -22 -9z"/>
<path d="M1500 817 c37 -22 170 -28 170 -8 0 6 -34 9 -77 8 -43 -1 -87 2 -98
6 -11 5 -9 2 5 -6z"/>
<path d="M1110 815 c0 -11 45 -45 59 -45 12 1 11 3 -4 12 -11 6 -24 17 -28 25
-8 12 -27 19 -27 8z"/>
<path d="M2081 774 c0 -11 3 -14 6 -6 3 7 2 16 -1 19 -3 4 -6 -2 -5 -13z"/>
<path d="M595 723 c-4 -31 -9 -63 -13 -72 -3 -9 -2 -13 3 -9 10 10 34 138 25
138 -4 0 -11 -25 -15 -57z"/>
<path d="M1641 765 c-10 -41 -10 -56 0 -100 5 -27 24 -79 41 -114 34 -70 36
-78 74 -286 29 -161 36 -187 28 -95 -15 168 -42 288 -85 387 -29 63 -46 119
-50 158 -3 33 -7 56 -8 50z"/>
<path d="M1510 711 c0 -10 19 -25 25 -20 1 2 -3 10 -11 17 -8 7 -14 8 -14 3z"/>
<path d="M1172 680 c0 -19 2 -27 5 -17 2 9 2 25 0 35 -3 9 -5 1 -5 -18z"/>
<path d="M614 685 c-3 -8 -4 -20 -2 -27 3 -7 7 -1 10 15 6 29 1 36 -8 12z"/>
<path d="M2111 643 c0 -31 2 -34 9 -18 5 11 9 14 9 7 1 -7 10 -23 22 -35 19
-19 18 -16 -5 31 -15 28 -29 52 -31 52 -3 0 -5 -17 -4 -37z"/>
<path d="M653 646 c-10 -6 -29 -12 -43 -14 -35 -5 -170 -62 -170 -72 0 -31 14
-40 59 -39 39 1 42 2 16 8 -33 7 -41 34 -12 39 9 2 17 -1 17 -7 0 -5 -8 -12
-17 -14 -12 -3 -10 -5 7 -6 28 -1 66 -21 41 -21 -21 0 -8 -128 23 -225 24 -72
85 -176 104 -175 4 1 17 22 29 47 l22 46 -66 66 c-37 36 -58 55 -48 41 10 -14
32 -37 47 -51 26 -24 28 -29 17 -53 -7 -14 -15 -26 -19 -26 -12 0 -49 76 -64
131 -8 30 -19 67 -25 82 -21 55 -14 109 22 158 l32 44 -29 -22 c-29 -23 -66
-31 -66 -14 0 16 28 32 67 38 21 3 48 15 61 26 24 22 28 13 12 -27 -15 -40 -2
-31 15 10 8 20 15 37 15 39 0 6 -31 0 -47 -9z m37 -465 c-11 -21 -22 -26 -33
-15 -3 4 4 15 16 24 27 22 32 19 17 -9z"/>
<path d="M725 640 c-3 -6 1 -7 9 -4 18 7 21 14 7 14 -6 0 -13 -4 -16 -10z"/>
<path d="M1192 620 c0 -19 2 -27 5 -17 2 9 2 25 0 35 -3 9 -5 1 -5 -18z"/>
<path d="M1376 601 c-19 -35 -20 -45 -5 -36 12 8 32 56 25 62 -2 3 -12 -9 -20
-26z"/>
<path d="M1476 553 c7 -32 15 -78 18 -103 8 -77 77 -326 102 -370 8 -14 19
-38 24 -54 6 -16 13 -27 15 -24 4 4 -25 90 -45 133 -13 27 -80 309 -80 336 0
11 -5 29 -10 39 -8 15 -16 50 -19 93 -1 4 -5 7 -10 7 -4 0 -3 -26 5 -57z"/>
<path d="M2095 590 c-3 -5 1 -10 10 -10 9 0 13 5 10 10 -3 6 -8 10 -10 10 -2
0 -7 -4 -10 -10z"/>
<path d="M2127 573 c-14 -13 -6 -23 18 -23 28 0 34 15 9 24 -19 7 -19 7 -27
-1z"/>
<path d="M2210 574 c0 -4 7 -12 16 -19 11 -8 17 -33 21 -86 2 -41 8 -77 12
-81 12 -13 -7 163 -20 178 -12 14 -29 19 -29 8z"/>
<path d="M2362 555 c0 -16 2 -22 5 -12 2 9 2 23 0 30 -3 6 -5 -1 -5 -18z"/>
<path d="M2335 540 c35 -169 27 -306 -26 -406 -33 -63 -30 -70 6 -16 36 55 65
196 63 312 -1 75 -2 85 -7 45 l-6 -50 -8 49 c-5 27 -13 58 -18 70 -9 19 -9 19
-4 -4z"/>
<path d="M1158 511 c-9 -20 -20 -48 -23 -63 -4 -16 -10 -26 -14 -24 -3 2 -6
-8 -7 -22 0 -15 -4 -87 -7 -161 -7 -155 3 -170 14 -18 8 124 16 177 29 193 6
6 8 19 4 28 -4 9 -1 16 6 16 7 0 10 7 6 16 -3 8 -1 24 5 35 6 11 9 24 7 28 -2
5 -11 -8 -20 -28z"/>
<path d="M1356 478 c-15 -69 -41 -208 -51 -273 -3 -16 -7 -61 -9 -100 l-5 -70
12 73 c7 41 16 70 20 66 4 -5 6 12 3 36 -5 36 -4 40 4 20 8 -21 9 -18 5 15 -3
22 2 65 10 95 12 46 14 48 10 15 -4 -35 -3 -37 6 -15 6 14 7 40 4 58 -3 19 -3
32 2 29 4 -3 8 24 8 59 1 35 0 64 -1 64 -1 0 -9 -33 -18 -72z"/>
<path d="M372 520 c0 -14 2 -19 5 -12 2 6 2 18 0 25 -3 6 -5 1 -5 -13z"/>
<path d="M2161 519 c-1 -17 -65 -82 -73 -74 -3 3 -8 -4 -11 -15 -4 -17 0 -16
31 11 47 41 65 66 59 82 -4 8 -6 6 -6 -4z"/>
<path d="M2080 508 c0 -20 -12 -29 -54 -39 l-31 -7 33 -1 c18 -1 32 -6 32 -13
1 -7 7 1 15 17 7 17 14 23 14 15 1 -10 4 -11 9 -4 4 6 18 17 30 23 13 7 21 15
19 18 -3 2 -15 -1 -27 -7 -18 -10 -24 -9 -31 1 -7 11 -9 10 -9 -3z"/>
<path d="M2222 510 c1 -8 -2 -25 -6 -38 -4 -13 -6 -26 -3 -28 10 -10 25 53 16
67 -8 12 -9 12 -7 -1z"/>
<path d="M2273 460 c0 -36 2 -50 4 -32 2 17 2 47 0 65 -2 17 -4 3 -4 -33z"/>
<path d="M455 490 c4 -14 14 -38 22 -53 8 -16 13 -31 10 -33 -2 -3 -28 17 -57
43 -34 30 -49 39 -41 25 7 -13 35 -39 62 -59 58 -41 65 -52 74 -117 8 -54 12
-177 6 -170 -2 2 -12 -14 -22 -35 -24 -55 -62 -78 -103 -63 -28 10 -29 10 -12
-3 33 -25 58 -17 106 33 51 53 74 113 67 177 -3 38 -4 37 -5 -10 -3 -70 -17
-85 -18 -20 -1 30 -5 71 -8 92 -5 27 -4 34 3 23 23 -33 8 2 -40 96 -28 54 -48
88 -44 74z"/>
<path d="M1885 490 c-3 -5 2 -10 12 -10 10 0 36 -2 58 -5 l40 -5 -35 14 c-42
17 -67 19 -75 6z"/>
<path d="M820 478 c0 -4 9 -8 20 -8 11 0 20 4 20 9 0 6 -9 9 -20 8 -11 -1 -20
-5 -20 -9z"/>
<path d="M1910 446 c9 -9 89 -10 97 -2 3 2 -20 6 -51 8 -33 2 -51 -1 -46 -6z"/>
<path d="M2150 406 c-12 -25 -20 -52 -17 -58 2 -7 10 5 17 27 7 22 17 46 23
53 5 7 7 15 5 18 -3 3 -16 -15 -28 -40z"/>
<path d="M1847 415 c5 -16 8 -71 8 -120 -1 -73 -5 -99 -24 -137 -12 -26 -21
-58 -18 -70 4 -21 4 -20 6 4 0 15 6 30 11 33 13 8 45 71 54 105 7 24 7 25 -6
3 -11 -19 -13 -9 -13 75 0 60 -5 105 -13 117 -11 18 -11 17 -5 -10z"/>
<path d="M2226 423 c-6 -14 -5 -15 5 -6 7 7 10 15 7 18 -3 3 -9 -2 -12 -12z"/>
<path d="M2045 419 c-5 -5 -28 -26 -50 -45 l-40 -36 39 31 c42 32 61 34 33 3
-18 -20 -47 -85 -47 -104 1 -7 11 12 24 42 24 59 40 67 43 24 1 -15 6 -31 11
-36 6 -6 6 9 1 39 -5 26 -7 58 -4 71 6 24 5 26 -10 11z"/>
<path d="M921 415 c0 -5 6 -30 13 -55 10 -32 15 -38 15 -20 0 24 -27 96 -28
75z"/>
<path d="M2187 365 c-15 -19 -34 -35 -42 -35 -11 0 -15 -11 -15 -37 l0 -38 31
45 c31 46 62 100 57 100 -2 0 -16 -16 -31 -35z"/>
<path d="M2238 358 c3 -14 2 -19 -6 -14 -7 4 -12 1 -12 -6 0 -7 -11 -37 -25
-67 -21 -45 -27 -51 -40 -41 -9 8 -15 8 -15 2 0 -6 6 -13 13 -16 8 -3 6 -10
-8 -22 -13 -10 -14 -15 -5 -12 8 2 36 40 63 83 45 74 58 115 38 115 -5 0 -7
-10 -3 -22z"/>
<path d="M884 290 c0 -86 -18 -140 -63 -195 -11 -13 -7 -12 11 4 35 31 69 120
72 188 1 28 -1 50 -5 47 -4 -2 -9 6 -11 18 -2 13 -4 -15 -4 -62z"/>
<path d="M1772 350 c0 -14 2 -19 5 -12 2 6 2 18 0 25 -3 6 -5 1 -5 -13z"/>
<path d="M1890 303 c-3 -23 -2 -39 3 -34 5 5 7 24 5 42 -3 33 -4 33 -8 -8z"/>
<path d="M1782 295 c0 -16 2 -22 5 -12 2 9 2 23 0 30 -3 6 -5 -1 -5 -18z"/>
<path d="M949 308 c0 -2 -2 -23 -5 -48 -2 -25 -8 -58 -13 -75 -9 -29 -9 -28
-11 15 -2 41 -3 38 -10 -22 -5 -37 -20 -93 -34 -123 -14 -31 -21 -53 -16 -50
16 10 70 125 81 173 14 61 22 132 15 132 -3 0 -6 -1 -7 -2z"/>
<path d="M1083 250 c0 -30 2 -43 4 -27 2 15 2 39 0 55 -2 15 -4 2 -4 -28z"/>
<path d="M1341 274 c0 -11 3 -14 6 -6 3 7 2 16 -1 19 -3 4 -6 -2 -5 -13z"/>
<path d="M2048 210 l-32 -51 -18 43 -19 43 6 -40 c9 -58 9 -60 27 -86 12 -17
17 -19 17 -8 1 8 -5 21 -11 29 -11 12 -10 12 3 2 14 -10 19 -8 34 15 10 16 28
39 41 53 23 25 23 26 3 38 -18 11 -22 8 -51 -38z"/>
<path d="M1792 230 c0 -14 2 -19 5 -12 2 6 2 18 0 25 -3 6 -5 1 -5 -13z"/>
<path d="M1901 224 c0 -11 3 -14 6 -6 3 7 2 16 -1 19 -3 4 -6 -2 -5 -13z"/>
<path d="M1881 173 c-10 -26 -10 -27 4 -9 8 11 15 23 15 28 0 15 -7 8 -19 -19z"/>
<path d="M2187 160 c4 -36 1 -51 -17 -72 -25 -32 -36 -34 -62 -11 -22 20 -24
11 -2 -11 24 -25 53 -19 90 18 40 40 42 56 10 93 l-24 28 5 -45z"/>
<path d="M380 156 c0 -8 4 -17 9 -20 5 -4 7 3 4 14 -6 23 -13 26 -13 6z"/>
<path d="M1801 154 c0 -11 3 -14 6 -6 3 7 2 16 -1 19 -3 4 -6 -2 -5 -13z"/>
<path d="M1073 75 c0 -33 2 -45 4 -27 2 18 2 45 0 60 -2 15 -4 0 -4 -33z"/>
<path d="M1103 60 c0 -25 2 -35 4 -22 2 12 2 32 0 45 -2 12 -4 2 -4 -23z"/>
<path d="M729 63 c-13 -16 -12 -17 4 -4 9 7 17 15 17 17 0 8 -8 3 -21 -13z"/>
<path d="M1822 40 c0 -14 2 -19 5 -12 2 6 2 18 0 25 -3 6 -5 1 -5 -13z"/>
<path d="M1301 14 c0 -11 3 -14 6 -6 3 7 2 16 -1 19 -3 4 -6 -2 -5 -13z"/>
</g>
</svg>
